<svg width="1476" height="286" viewBox="0 0 1476 286" fill="none" xmlns="http://www.w3.org/2000/svg">
<path d="M155 224H120V145.25C120 133.25 117 124.667 111 119.5C105 114.167 96.3333 111.5 85 111.5H52.5V224H17.5V49H52.5V94H85C108.833 94 126.417 98.3333 137.75 107C149.25 115.5 155 128.25 155 145.25V224ZM263.643 211.5C271.809 211.5 279.393 210.083 286.393 207.25C293.559 204.417 300.559 200.417 307.393 195.25L317.393 210.25C314.226 213.083 310.476 215.667 306.143 218C301.976 220.333 297.393 222.333 292.393 224C287.559 225.5 282.476 226.667 277.143 227.5C271.809 228.5 266.476 229 261.143 229C249.309 229 238.476 227.417 228.643 224.25C218.976 221.25 210.726 216.833 203.893 211C197.059 205 191.726 197.667 187.893 189C184.226 180.333 182.393 170.333 182.393 159C182.393 147.833 184.143 137.917 187.643 129.25C191.309 120.417 196.309 113.083 202.643 107.25C209.143 101.25 216.809 96.75 225.643 93.75C234.476 90.5833 244.226 89 254.893 89C264.893 89 274.309 90.5 283.143 93.5C291.976 96.5 299.643 100.917 306.143 106.75C312.643 112.417 317.809 119.333 321.643 127.5C325.476 135.667 327.393 144.917 327.393 155.25V172.75H220.643C222.643 186.583 227.393 196.5 234.893 202.5C242.559 208.5 252.143 211.5 263.643 211.5ZM254.893 105.25C250.059 105.25 245.559 106.167 241.393 108C237.226 109.833 233.559 112.75 230.393 116.75C227.393 120.75 224.893 125.917 222.893 132.25C221.059 138.583 220.059 146.25 219.893 155.25H289.893C289.893 146.583 288.893 139.083 286.893 132.75C284.893 126.417 282.226 121.25 278.893 117.25C275.726 113.083 271.976 110.083 267.643 108.25C263.476 106.25 259.226 105.25 254.893 105.25ZM458.623 219H426.123C402.29 219 384.623 214.75 373.123 206.25C361.79 197.583 356.123 184.75 356.123 167.75V94H391.123V167.75C391.123 179.75 394.123 188.417 400.123 193.75C406.123 198.917 414.79 201.5 426.123 201.5H458.623V94H493.623V221.5C493.623 229.333 492.123 236.417 489.123 242.75C486.123 249.25 481.623 254.833 475.623 259.5C469.79 264.167 462.373 267.75 453.373 270.25C444.54 272.75 434.206 274 422.373 274C418.373 274 414.04 273.667 409.373 273C404.873 272.5 400.29 271.583 395.623 270.25C390.956 269.083 386.373 267.5 381.873 265.5C377.54 263.667 373.54 261.5 369.873 259L379.873 244C385.54 247.833 391.873 250.833 398.873 253C405.873 255.333 412.873 256.5 419.873 256.5C432.373 256.5 441.956 253.667 448.623 248C455.29 242.333 458.623 233.5 458.623 221.5V219ZM672.48 205.25V224H528.73V49H564.98V205.25H672.48ZM684.98 94H719.98V172.75C719.98 184.75 722.98 193.417 728.98 198.75C734.98 203.917 743.647 206.5 754.98 206.5H787.48V94H822.48V224H754.98C731.147 224 713.48 219.75 701.98 211.25C690.647 202.583 684.98 189.75 684.98 172.75V94ZM995.088 224H960.088V145.25C960.088 133.25 957.088 124.667 951.088 119.5C945.088 114.167 936.421 111.5 925.088 111.5H892.588V224H857.588V94H925.088C948.921 94 966.505 98.3333 977.838 107C989.338 115.5 995.088 128.25 995.088 145.25V224ZM1057.48 182.75C1057.48 198.583 1067.06 206.5 1086.23 206.5H1121.23V159H1086.23C1067.06 159 1057.48 166.917 1057.48 182.75ZM1121.23 141.5C1121.23 129.5 1118.06 120.667 1111.73 115C1105.56 109.333 1097.48 106.5 1087.48 106.5C1079.98 106.5 1072.65 107.667 1065.48 110C1058.31 112.167 1051.9 115.167 1046.23 119L1037.48 104C1041.15 101.5 1045.15 99.3333 1049.48 97.5C1053.98 95.6667 1058.56 94.1667 1063.23 93C1067.9 91.6667 1072.48 90.6667 1076.98 90C1081.65 89.3333 1085.98 89 1089.98 89C1100.65 89 1110.06 90.25 1118.23 92.75C1126.4 95.25 1133.31 98.8333 1138.98 103.5C1144.65 108.167 1148.9 113.75 1151.73 120.25C1154.73 126.583 1156.23 133.667 1156.23 141.5V224H1086.23C1063.56 224 1046.81 220.583 1035.98 213.75C1025.31 206.917 1019.98 196.583 1019.98 182.75C1019.98 168.917 1025.31 158.583 1035.98 151.75C1046.81 144.917 1063.56 141.5 1086.23 141.5H1121.23ZM1222.36 207.75C1222.36 212.75 1220.61 217.167 1217.11 221C1213.78 224.667 1209.28 226.5 1203.61 226.5C1197.95 226.5 1193.36 224.667 1189.86 221C1186.53 217.167 1184.86 212.75 1184.86 207.75C1184.86 202.75 1186.53 198.417 1189.86 194.75C1193.36 190.917 1197.95 189 1203.61 189C1209.11 189 1213.61 190.917 1217.11 194.75C1220.61 198.417 1222.36 202.75 1222.36 207.75ZM1281.11 182.75C1281.11 198.583 1290.7 206.5 1309.86 206.5H1344.86V159H1309.86C1290.7 159 1281.11 166.917 1281.11 182.75ZM1344.86 141.5C1344.86 129.5 1341.7 120.667 1335.36 115C1329.2 109.333 1321.11 106.5 1311.11 106.5C1303.61 106.5 1296.28 107.667 1289.11 110C1281.95 112.167 1275.53 115.167 1269.86 119L1261.11 104C1264.78 101.5 1268.78 99.3333 1273.11 97.5C1277.61 95.6667 1282.2 94.1667 1286.86 93C1291.53 91.6667 1296.11 90.6667 1300.61 90C1305.28 89.3333 1309.61 89 1313.61 89C1324.28 89 1333.7 90.25 1341.86 92.75C1350.03 95.25 1356.95 98.8333 1362.61 103.5C1368.28 108.167 1372.53 113.75 1375.36 120.25C1378.36 126.583 1379.86 133.667 1379.86 141.5V224H1309.86C1287.2 224 1270.45 220.583 1259.61 213.75C1248.95 206.917 1243.61 196.583 1243.61 182.75C1243.61 168.917 1248.95 158.583 1259.61 151.75C1270.45 144.917 1287.2 141.5 1309.86 141.5H1344.86ZM1449.75 224H1414.75V96.5H1449.75V224ZM1451 62.75C1451 67.75 1449.25 72.1667 1445.75 76C1442.41 79.6667 1437.91 81.5 1432.25 81.5C1426.58 81.5 1422 79.6667 1418.5 76C1415.16 72.1667 1413.5 67.75 1413.5 62.75C1413.5 57.75 1415.16 53.4167 1418.5 49.75C1422 45.9167 1426.58 44 1432.25 44C1437.75 44 1442.25 45.9167 1445.75 49.75C1449.25 53.4167 1451 57.75 1451 62.75Z" fill="white"/>
</svg>
